<svg xmlns="http://www.w3.org/2000/svg" viewBox="0 0 24 24" fill="#7360F2"><path d="M11.398.002C9.473.028 5.331.344 3.014 2.467 1.294 4.177.693 6.698.623 9.82c-.06 3.11-.13 8.95 5.5 10.541v2.42s-.038.97.602 1.17c.79.25 1.24-.499 1.99-1.299l1.4-1.58c3.85.32 6.8-.419 7.14-.529.78-.25 5.181-.811 5.901-6.652.74-6.021-.36-9.831-2.34-11.551l-.01-.002c-.6-.55-3-2.3-8.37-2.32 0 0-.396-.025-1.038-.016m.067 1.697c.545-.003.88.019.88.019 4.54.01 6.711 1.38 7.221 1.84 1.67 1.429 2.528 4.859 1.9 9.892-.6 4.88-4.17 5.19-4.83 5.4-.28.09-2.88.73-6.153.52 0 0-2.439 2.941-3.199 3.701-.12.13-.26.17-.35.15-.13-.03-.17-.19-.17-.42l.02-4.019c-4.771-1.32-4.491-6.302-4.441-8.901.06-2.599.55-4.679 2-6.099 1.957-1.789 5.475-2.062 7.101-2.083zm.36 2.892a.299.299 0 00-.3.295.3.3 0 00.295.304c2.585.02 4.7 1.79 4.729 5.014a.3.3 0 00.3.295h.005a.3.3 0 00.295-.305c-.033-3.487-2.396-5.575-5.219-5.607a.299.299 0 00-.005 0zm.31 1.478a.3.3 0 00-.319.28.3.3 0 00.28.318c1.44.087 2.147.827 2.247 2.32a.3.3 0 00.299.28h.02a.3.3 0 00.28-.318c-.117-1.77-1.043-2.756-2.807-2.86zm-4.017.53a.746.746 0 00-.438.09h-.007c-.31.182-.59.42-.827.7-.22.26-.34.523-.37.777-.02.15-.007.302.035.447l.017.01c.12.42.44 1.12 1.14 2.39.45.82.92 1.503 1.35 2.077.216.286.45.56.703.816l.084.09.09.084c.256.253.53.487.816.703.575.43 1.257.9 2.077 1.35 1.27.7 1.97 1.02 2.39 1.14l.01.017c.145.042.297.055.447.035.254-.03.518-.15.777-.37.28-.237.518-.517.7-.827v-.007c.164-.31.107-.603-.13-.803-.005 0-.005-.005-.008-.008-.16-.14-1.532-1.052-1.925-1.263-.377-.207-.767-.075-1.03.22l-.353.443c-.183.223-.52.193-.52.193l-.01.005c-2.49-.635-3.155-3.156-3.155-3.156s-.03-.338.197-.52l.442-.353c.293-.264.425-.654.218-1.03-.21-.394-1.123-1.766-1.263-1.926-.003-.003-.007-.005-.007-.008-.098-.116-.222-.18-.36-.196a.75.75 0 00-.106-.006z"/></svg>
